<?xml version="1.0" encoding="UTF-8"?>
<svg xmlns="http://www.w3.org/2000/svg" width="26" height="26" viewBox="0 0 26 26" fill="none">
  <path d="M8.6665 2.16699V5.41699" stroke="#17191C" stroke-width="1.5" stroke-miterlimit="10" stroke-linecap="round" stroke-linejoin="round"></path>
  <path d="M17.3335 2.16699V5.41699" stroke="#17191C" stroke-width="1.5" stroke-miterlimit="10" stroke-linecap="round" stroke-linejoin="round"></path>
  <path d="M3.79175 9.84766L22.2084 9.84766" stroke="#17191C" stroke-width="1.5" stroke-miterlimit="10" stroke-linecap="round" stroke-linejoin="round"></path>
  <path d="M22.75 9.20866L22.75 18.417C22.75 21.667 21.125 23.8337 17.3333 23.8337L8.66667 23.8337C4.875 23.8337 3.25 21.667 3.25 18.417L3.25 9.20866C3.25 5.95866 4.875 3.79199 8.66667 3.79199L17.3333 3.79199C21.125 3.79199 22.75 5.95866 22.75 9.20866Z" stroke="#17191C" stroke-width="1.5" stroke-miterlimit="10" stroke-linecap="round" stroke-linejoin="round"></path>
  <path d="M10.5473 20.0995C10.0359 20.0995 9.58137 20.0119 9.18364 19.8367C8.78828 19.6615 8.47578 19.4177 8.24614 19.1052C8.0165 18.7927 7.89458 18.4317 7.88037 18.0221H9.2156C9.22744 18.2186 9.29254 18.3902 9.41091 18.537C9.52928 18.6814 9.68672 18.7939 9.88321 18.8744C10.0797 18.9549 10.2999 18.9951 10.5437 18.9951C10.8041 18.9951 11.035 18.9501 11.2362 18.8602C11.4374 18.7678 11.5949 18.64 11.7085 18.4767C11.8221 18.3133 11.8778 18.1251 11.8754 17.912C11.8778 17.6919 11.8209 17.4977 11.7049 17.3296C11.5889 17.1615 11.4209 17.0302 11.2007 16.9355C10.9829 16.8408 10.7201 16.7934 10.4123 16.7934H9.76958V15.7778H10.4123C10.6656 15.7778 10.887 15.734 11.0764 15.6464C11.2682 15.5588 11.4185 15.4357 11.5274 15.2771C11.6363 15.1161 11.6896 14.9302 11.6872 14.7195C11.6896 14.5136 11.6434 14.3348 11.5487 14.1833C11.4564 14.0294 11.325 13.9099 11.1545 13.8247C10.9864 13.7394 10.7888 13.6968 10.5615 13.6968C10.3389 13.6968 10.133 13.7371 9.94358 13.8176C9.75419 13.8981 9.60149 14.0129 9.48548 14.162C9.36948 14.3088 9.30793 14.484 9.30083 14.6876H8.03307C8.04254 14.2804 8.15973 13.9229 8.38463 13.6151C8.61191 13.305 8.91494 13.0635 9.29372 12.8907C9.67251 12.7155 10.0975 12.6279 10.5686 12.6279C11.0539 12.6279 11.4753 12.7191 11.8328 12.9014C12.1926 13.0813 12.4708 13.324 12.6673 13.6294C12.8638 13.9347 12.962 14.2721 12.962 14.6414C12.9644 15.051 12.8437 15.3943 12.5998 15.6713C12.3584 15.9482 12.0411 16.1294 11.6481 16.2146V16.2714C12.1595 16.3424 12.5513 16.5318 12.8236 16.8396C13.0982 17.145 13.2343 17.5249 13.2319 17.9795C13.2319 18.3867 13.1159 18.7513 12.8839 19.0732C12.6543 19.3928 12.337 19.6438 11.9322 19.8261C11.5298 20.0084 11.0681 20.0995 10.5473 20.0995Z" fill="#17191C"></path>
  <path d="M17.509 12.7274V20.0001H16.1915V14.0093H16.1489L14.4479 15.096V13.8886L16.2554 12.7274H17.509Z" fill="#17191C"></path>
</svg>
