<?xml version="1.0" encoding="UTF-8"?>
<svg xmlns="http://www.w3.org/2000/svg" width="26" height="26" viewBox="0 0 26 26" fill="none">
  <path d="M13.1807 7.40234L7.38844 7.40234" stroke="#77818B" stroke-width="1.5" stroke-linecap="round" stroke-linejoin="round"></path>
  <path d="M18.6118 7.40234L17.1529 7.40234" stroke="#77818B" stroke-width="1.5" stroke-linecap="round" stroke-linejoin="round"></path>
  <path d="M13.1804 12.8193L7.3882 12.8193" stroke="#77818B" stroke-width="1.5" stroke-linecap="round" stroke-linejoin="round"></path>
  <path d="M18.6116 12.8193L17.1527 12.8193" stroke="#77818B" stroke-width="1.5" stroke-linecap="round" stroke-linejoin="round"></path>
  <path d="M13.1804 18.2363L7.3882 18.2363" stroke="#77818B" stroke-width="1.5" stroke-linecap="round" stroke-linejoin="round"></path>
  <path d="M18.6116 18.2363L17.1527 18.2363" stroke="#77818B" stroke-width="1.5" stroke-linecap="round" stroke-linejoin="round"></path>
  <path d="M9.74984 23.8337L16.2498 23.8337C21.6665 23.8337 23.8332 21.667 23.8332 16.2503L23.8332 9.75032C23.8332 4.33366 21.6665 2.16699 16.2498 2.16699L9.74984 2.16699C4.33317 2.16699 2.1665 4.33366 2.1665 9.75032L2.1665 16.2503C2.1665 21.667 4.33317 23.8337 9.74984 23.8337Z" stroke="#77818B" stroke-width="1.5" stroke-linecap="round" stroke-linejoin="round"></path>
</svg>
