<svg width="32" height="32" viewBox="0 0 32 32" fill="none" xmlns="http://www.w3.org/2000/svg">
<g clip-path="url(#clip0_555_33)">
<path d="M26.6667 0H5.33333C2.38781 0 0 2.38781 0 5.33333V26.6667C0 29.6122 2.38781 32 5.33333 32H26.6667C29.6122 32 32 29.6122 32 26.6667V5.33333C32 2.38781 29.6122 0 26.6667 0Z" fill="#0097FB"/>
<path d="M16.0001 28.4444C22.873 28.4444 28.4446 22.8729 28.4446 16C28.4446 9.12711 22.873 3.55554 16.0001 3.55554C9.12723 3.55554 3.55566 9.12711 3.55566 16C3.55566 22.8729 9.12723 28.4444 16.0001 28.4444Z" fill="white"/>
<path d="M13.1494 22.8666L7.37166 17.4431C7.02455 17.1172 7.02455 16.5889 7.37166 16.263L8.62871 15.083C8.97584 14.7571 9.53868 14.7571 9.88579 15.083L13.778 18.7365L22.1147 10.911C22.4617 10.5852 23.0246 10.5852 23.3718 10.911L24.6288 12.091C24.9759 12.4169 24.9759 12.9452 24.6288 13.2711L14.4065 22.8666C14.0594 23.1925 13.4966 23.1925 13.1494 22.8666Z" fill="url(#paint0_linear_555_33)"/>
</g>
<defs>
<linearGradient id="paint0_linear_555_33" x1="24.8891" y1="10.6666" x2="8.00021" y2="20.4444" gradientUnits="userSpaceOnUse">
<stop stop-color="#0097FB"/>
<stop offset="1" stop-color="#00528C"/>
</linearGradient>
<clipPath id="clip0_555_33">
<rect width="32" height="32" fill="white"/>
</clipPath>
</defs>
</svg>
