<svg width="114" height="20" viewBox="0 0 114 20" fill="none" xmlns="http://www.w3.org/2000/svg">
<g clip-path="url(#clip0_554_3)">
<path d="M23.379 3.33705C23.4043 2.84435 23.4548 2.46535 23.5306 2.20005C24.895 2.42745 26.531 2.54115 28.4387 2.54115C30.3463 2.54115 32.3424 2.31375 34.4269 1.85895C34.2121 3.46338 33.3972 4.3414 31.9823 4.493C31.5401 4.55617 30.8579 4.61933 29.9357 4.6825C29.9104 5.04887 29.702 6.6533 29.3104 9.4958C28.9187 12.3257 28.7229 14.2775 28.7229 15.3513C28.7229 16.4252 28.8113 17.1706 28.9882 17.5875C27.9144 17.3095 27.1816 16.9432 26.79 16.4883C26.3984 16.0209 26.2026 15.4461 26.2026 14.7639C26.2026 14.0817 26.3605 12.6036 26.6763 10.3296C27.0048 8.04297 27.2006 6.20482 27.2638 4.81515C26.2405 4.86568 25.2361 4.89095 24.2507 4.89095C23.6696 4.89095 23.379 4.37298 23.379 3.33705ZM36.814 13.4184C36.814 14.0122 36.9213 14.4986 37.1361 14.8776C37.3635 15.244 37.6793 15.4271 38.0836 15.4271C38.6774 15.4271 39.2396 15.0797 39.7702 14.3849C40.3134 13.6901 40.7429 12.7994 41.0588 11.7129C41.3872 10.6265 41.5515 9.59687 41.5515 8.6241C41.5515 7.6387 41.5136 6.8428 41.4378 6.2364C41.8168 6.21113 42.0821 6.1985 42.2337 6.1985C42.878 6.1985 43.3643 6.31852 43.6928 6.55855C44.0213 6.79858 44.1855 7.22812 44.1855 7.84715C44.1855 8.08718 44.0339 9.06627 43.7307 10.7844C43.4275 12.4899 43.2759 13.8606 43.2759 14.8965C43.2759 15.9198 43.4717 16.8294 43.8634 17.6254C42.9159 17.4611 42.221 17.1137 41.7789 16.5831C41.3367 16.0399 41.1156 15.2629 41.1156 14.2522C41.1156 14.0754 41.1409 13.7343 41.1914 13.2289C40.8503 14.4291 40.2439 15.3956 39.3722 16.1283C38.5005 16.861 37.6414 17.2274 36.795 17.2274C35.9612 17.2274 35.2853 16.9179 34.7674 16.2988C34.262 15.6672 34.0094 14.7765 34.0094 13.6269C34.0094 12.4773 34.2115 11.3655 34.6158 10.2917C35.0327 9.20523 35.6517 8.28932 36.4729 7.54395C37.294 6.78595 38.2099 6.40695 39.2206 6.40695C39.8017 6.40695 40.3955 6.54592 41.0019 6.82385C39.7259 7.27865 38.709 8.17562 37.951 9.51475C37.193 10.8412 36.814 12.1425 36.814 13.4184ZM50.6999 7.1839C50.3461 7.1839 50.0303 7.30392 49.7524 7.54395C49.4744 7.77135 49.3355 8.09982 49.3355 8.52935C49.3355 8.95888 49.4808 9.36315 49.7713 9.74215C50.0745 10.1211 50.4409 10.4559 50.8704 10.7465C51.3 11.0244 51.7295 11.315 52.159 11.6182C52.6012 11.9088 52.9865 12.2751 53.315 12.7173C53.6434 13.1468 53.8266 13.6269 53.8645 14.1575C53.8645 15.0671 53.4729 15.8314 52.6896 16.4504C51.9064 17.0695 50.9336 17.379 49.7713 17.379C48.6091 17.379 47.6931 17.1453 47.0236 16.6778C46.3666 16.2104 46.0382 15.6735 46.0382 15.0671C46.0382 14.4607 46.2214 13.9743 46.5877 13.6079C46.9667 13.2289 47.4342 13.0394 47.99 13.0394C48.2806 13.0394 48.5522 13.09 48.8049 13.191C48.4006 13.6206 48.1985 14.0754 48.1985 14.5554C48.1985 15.0355 48.3311 15.4208 48.5964 15.7114C48.8617 16.002 49.2218 16.1472 49.6766 16.1472C50.1314 16.1472 50.5104 16.0335 50.8136 15.8061C51.1294 15.5661 51.2873 15.2629 51.2873 14.8965C51.2873 14.5175 51.1799 14.1828 50.9652 13.8922C50.7504 13.6016 50.4788 13.349 50.1503 13.1342C49.8345 12.9068 49.4871 12.6541 49.1081 12.3762C48.7291 12.0983 48.3753 11.8203 48.0469 11.5424C47.731 11.2518 47.4657 10.8918 47.251 10.4622C47.0362 10.0201 46.9288 9.54002 46.9288 9.02205C46.9288 8.12508 47.2952 7.39235 48.0279 6.82385C48.7733 6.24272 49.6955 5.95215 50.7946 5.95215C51.9064 5.95215 52.7149 6.16692 53.2202 6.59645C53.7382 7.02598 53.9972 7.53132 53.9972 8.11245C53.9972 8.68095 53.814 9.16733 53.4476 9.5716C53.0939 9.97587 52.6328 10.178 52.0643 10.178C51.7863 10.178 51.4705 10.1211 51.1168 10.0074C51.3947 9.76742 51.6095 9.4958 51.7611 9.1926C51.9127 8.87677 51.9885 8.56725 51.9885 8.26405C51.9885 7.96085 51.8621 7.70818 51.6095 7.50605C51.3568 7.29128 51.0536 7.1839 50.6999 7.1839ZM58.6769 11.1444C59.1317 8.55462 60.0603 6.93123 61.4626 6.2743C61.8163 6.11007 62.1637 6.02795 62.5048 6.02795C63.1744 6.02795 63.7429 6.2743 64.2103 6.767C64.6778 7.2597 64.9115 7.89137 64.9115 8.662C64.9115 9.43263 64.6904 10.0959 64.2482 10.6517C63.8187 11.195 63.2123 11.6182 62.429 11.9214L62.6564 12.6225C63.0733 13.9238 63.6797 15.2124 64.4756 16.4883C65.2715 17.7643 65.9158 18.636 66.4085 19.1035C65.9537 19.2172 65.5495 19.274 65.1957 19.274C63.9198 19.274 62.8017 18.3455 61.8416 16.4883C61.4626 15.7556 60.9067 14.3849 60.174 12.3762C60.0097 12.3888 59.7697 12.3951 59.4539 12.3951C59.3781 12.332 59.3402 12.1298 59.3402 11.7887C59.9213 11.7761 60.4393 11.675 60.8941 11.4855C61.3489 11.296 61.7026 11.0497 61.9553 10.7465C62.4353 10.1275 62.6754 9.47685 62.6754 8.79465C62.6754 8.45355 62.5996 8.17562 62.448 7.96085C62.309 7.73345 62.1069 7.61975 61.8416 7.61975C61.3741 7.61975 60.8941 7.95453 60.4014 8.6241C59.9213 9.29367 59.5107 10.2285 59.1696 11.4287C58.8412 12.6162 58.6769 13.7343 58.6769 14.7828C58.6769 15.8188 58.7148 16.5578 58.7906 17C58.3864 17.0253 58.1211 17.0379 57.9947 17.0379C57.2746 17.0379 56.7567 16.9179 56.4408 16.6778C56.125 16.4252 55.9671 16.0272 55.9671 15.484C55.9671 14.9408 56.0808 13.9048 56.3082 12.3762C56.9777 7.6766 57.3125 4.10768 57.3125 1.66945C57.3125 0.570349 57.2367 -0.168701 57.0851 -0.547702C58.0326 -0.295035 58.6769 0.090282 59.018 0.608248C59.3718 1.11358 59.5486 1.83368 59.5486 2.76855C59.5486 3.40022 59.4223 4.72672 59.1696 6.74805C58.9296 8.76938 58.7654 10.2348 58.6769 11.1444ZM79.7171 10.6707L77.8979 10.6517C77.3799 10.6517 76.9819 10.6581 76.704 10.6707C76.5019 12.4394 76.4008 13.8732 76.4008 14.9723C76.4008 16.0714 76.4387 16.8421 76.5145 17.2843C76.1102 17.3095 75.8449 17.3222 75.7186 17.3222C74.9985 17.3222 74.4805 17.1958 74.1647 16.9431C73.8489 16.6905 73.691 16.2483 73.691 15.6166C73.691 14.9723 73.8678 13.4374 74.2216 11.0118C73.8173 11.1381 73.5204 11.2455 73.3309 11.3339C73.3056 11.056 73.293 10.8476 73.293 10.7086C73.293 9.8369 73.691 9.29367 74.4869 9.0789C74.7269 7.34813 74.8722 5.85108 74.9227 4.58775C74.2784 4.58775 73.8678 4.49932 73.691 4.32245C73.5267 4.14558 73.4446 3.75395 73.4446 3.14755C73.4951 2.57905 73.5457 2.20637 73.5962 2.0295C75.0238 2.219 76.5903 2.31375 78.2958 2.31375C80.0013 2.31375 81.65 2.16215 83.2418 1.85895C83.0649 3.18545 82.2564 3.98135 80.8162 4.24665C80.0329 4.39825 78.9148 4.49932 77.462 4.54985C77.4494 4.71408 77.2662 6.18587 76.9125 8.9652C77.6452 8.99047 78.1442 9.0031 78.4095 9.0031C79.6097 9.0031 80.4624 8.79465 80.9678 8.37775C80.993 8.63042 81.0057 8.81992 81.0057 8.94625C81.0057 10.0959 80.5761 10.6707 79.7171 10.6707ZM83.4224 16.5262C83.2708 16.2736 83.176 16.0335 83.1381 15.8061C83.1002 15.5661 83.0813 15.1997 83.0813 14.707C83.0813 14.2143 83.2897 12.2751 83.7066 8.8894C84.1362 5.50367 84.3509 3.17913 84.3509 1.9158C84.3509 0.652465 84.2751 -0.168701 84.1235 -0.547702C85.071 -0.295035 85.7153 0.090282 86.0564 0.608248C86.4102 1.11358 86.587 1.83368 86.587 2.76855C86.587 3.32442 86.4038 5.13098 86.0375 8.18825C85.6711 11.2455 85.4879 13.709 85.4879 15.5787C85.4879 15.983 85.5132 16.5515 85.5637 17.2843C84.4141 17.2337 83.7003 16.9811 83.4224 16.5262ZM94.3154 7.50605C93.4942 7.50605 92.7615 8.06192 92.1172 9.17365C91.4729 10.2727 91.1507 11.3718 91.1507 12.4709C91.1507 14.7702 91.7445 15.9198 92.932 15.9198C93.7785 15.9198 94.467 15.3703 94.9976 14.2712C95.5282 13.1595 95.7935 11.9151 95.7935 10.538C95.7935 8.51672 95.3008 7.50605 94.3154 7.50605ZM92.7046 5.80055C92.8436 5.80055 92.9699 5.84477 93.0836 5.9332C93.21 6.009 93.2731 6.09112 93.2731 6.17955C91.9972 7.06388 91.2328 8.29563 90.9802 9.8748C91.2455 9.16733 91.5676 8.55462 91.9466 8.03665C92.3383 7.51868 92.7425 7.12705 93.1594 6.86175C93.9553 6.36905 94.7323 6.1227 95.4903 6.1227C96.2483 6.1227 96.8926 6.49538 97.4232 7.24075C97.9538 7.98612 98.2191 8.98415 98.2191 10.2348C98.2191 11.6371 97.9348 12.9257 97.3663 14.1006C96.7347 15.4271 95.8377 16.3431 94.6754 16.8484C94.0185 17.139 93.2984 17.2843 92.5151 17.2843C91.416 17.2843 90.4559 16.861 89.6347 16.0146C88.8262 15.1555 88.4219 13.9301 88.4219 12.3383C88.4219 10.7339 88.8136 9.32525 89.5968 8.11245C90.3801 6.88702 91.416 6.11638 92.7046 5.80055ZM109.536 17C109.22 17.1769 108.828 17.2653 108.361 17.2653C107.906 17.2653 107.653 17.1706 107.603 16.981C107.375 15.9451 107.173 14.7955 106.996 13.5321C106.82 12.2688 106.706 11.4666 106.655 11.1255C105.329 13.8669 104.438 15.8251 103.983 17C103.68 17.1769 103.295 17.2653 102.827 17.2653C102.36 17.2653 102.101 17.1706 102.051 16.981C101.861 16.1725 101.659 14.966 101.444 13.3616C101.229 11.7445 101.002 10.3359 100.762 9.13575C100.522 7.92295 100.219 7.00703 99.8523 6.388C100.547 6.05953 101.084 5.8953 101.463 5.8953C101.855 5.8953 102.139 5.96478 102.316 6.10375C102.505 6.23008 102.657 6.44485 102.771 6.74805C102.897 7.03862 102.998 7.35445 103.074 7.69555C103.15 8.03665 103.213 8.47882 103.263 9.02205C103.314 9.55265 103.358 10.0643 103.396 10.557C103.535 12.4141 103.649 13.6901 103.737 14.3849C104.849 11.7319 105.632 9.65372 106.087 8.15035C105.885 7.41762 105.657 6.83017 105.405 6.388C106.1 6.05953 106.636 5.8953 107.015 5.8953C107.407 5.8953 107.691 5.96478 107.868 6.10375C108.058 6.23008 108.209 6.44485 108.323 6.74805C108.449 7.03862 108.55 7.35445 108.626 7.69555C108.702 8.03665 108.765 8.47882 108.816 9.02205C108.866 9.55265 108.91 10.0643 108.948 10.557C109.087 12.4141 109.201 13.6901 109.289 14.3849C111.159 9.9885 112.113 7.07652 112.151 5.64895C113.149 6.17955 113.648 6.72278 113.648 7.27865C113.648 7.82188 113.402 8.662 112.909 9.799C112.416 10.9234 111.803 12.2246 111.071 13.7027C110.338 15.1682 109.826 16.2673 109.536 17Z" fill="#0097FB"/>
<rect y="1" width="18" height="18" rx="3" fill="#0097FB"/>
<circle cx="9" cy="10" r="7" fill="white"/>
<path d="M7.39644 13.8625L4.14644 10.8117C3.95119 10.6285 3.95119 10.3313 4.14644 10.148L4.85353 9.48422C5.04879 9.30091 5.36539 9.30091 5.56064 9.48422L7.75 11.5393L12.4394 7.13746C12.6346 6.95418 12.9512 6.95418 13.1465 7.13746L13.8536 7.80123C14.0488 7.98451 14.0488 8.28169 13.8536 8.46499L8.10355 13.8625C7.90828 14.0458 7.5917 14.0458 7.39644 13.8625Z" fill="url(#paint0_linear_554_3)"/>
</g>
<defs>
<linearGradient id="paint0_linear_554_3" x1="14" y1="7" x2="4.5" y2="12.5" gradientUnits="userSpaceOnUse">
<stop stop-color="#0097FB"/>
<stop offset="1" stop-color="#00528C"/>
</linearGradient>
<clipPath id="clip0_554_3">
<rect width="114" height="20" fill="white"/>
</clipPath>
</defs>
</svg>
